<svg width="512" height="512" xmlns="http://www.w3.org/2000/svg">

 <g>
  <title>background</title>
  <rect fill="none" id="canvas_background" height="402" width="582" y="-1" x="-1"/>
 </g>
 <g>
  <title>Layer 1</title>
  <path id="svg_3" fill="#E65A4D" d="m388.1,143c13.4,-1.4 26,9.3 26.9,22.9c0.2,3.6 0,7.3 0,11c-1.2,0 -2.1,0.8 -3.1,1.5c-11,7.9 -21.9,15.7 -32.9,23.6c-36.7,25.2 -73.4,50.3 -110,75.6c-3.8,2.6 -8.1,4.6 -11.1,8.3c-1.7,0.3 -2.8,-0.8 -4,-1.7c-29.6,-20.6 -59.3,-41.3 -88.9,-61.9c-10.1,-7 -20.1,-14 -31,-21.5c0,2.7 0,4.5 0,6.3c0,28.6 0,57.3 0,85.9c0,25.3 0.1,50.6 0.2,75.9c0,0.7 -0.1,1.4 -0.1,2.1c-16.6,3.2 -30.7,-4.7 -34.4,-19.4c-0.5,-2.1 -0.7,-4.3 -0.7,-6.4c0,-58.7 0.1,-117.5 -0.1,-176.2c-0.1,-14.9 13.2,-28.1 27.1,-26c0.5,0.5 0.9,1 1.4,1.4c42.1,31.2 84.2,62.4 126.2,93.6c2.5,1.9 4,1.6 6.3,-0.1c26.2,-19.4 52.5,-38.7 78.7,-58c16.5,-12.2 33,-24.6 49.5,-36.9z"/>
  <path id="svg_4" fill="#E6E3D6" d="m134.1,369c-0.1,-25.3 -0.1,-50.6 -0.2,-75.9c0,-28.6 0,-57.3 0,-85.9c0,-1.8 0,-3.5 0,-6.3c10.8,7.5 20.9,14.5 31,21.5c29.6,20.6 59.3,41.3 88.9,61.9c1.2,0.8 2.3,1.9 4,1.7c0.2,2.2 2.2,2.8 3.7,3.8c34,23.6 68,47 101.9,70.8c4.3,3 9.3,5.2 12.6,9.6c-1,1.3 -2.4,1 -3.7,1c-78.8,0 -157.6,-0.1 -236.4,-0.1c0.7,-1 1.4,-1.9 2.1,-2.9c2.2,-0.7 4.2,-1.6 5,-4c4.2,-0.6 6.7,-3.6 9.3,-6.5c-3.6,1.5 -7,3.1 -9.5,6.3c-2.2,0.7 -4.2,1.6 -5,4c-1.2,0.2 -2.4,0.6 -3.7,1zm59.9,-40c0.3,0 0.6,0 1,0c1.3,-0.7 2.9,-1 3,-3c0.8,0 1.6,-0.2 2,-1c0.3,-0.3 0.7,-0.7 1,-1c0.8,0 1.6,-0.2 2,-1c0.1,-0.2 0.3,-0.3 0.4,-0.5c-0.2,0.1 -0.3,0.3 -0.5,0.4c-0.8,0 -1.6,0.2 -2,1c-0.3,0.3 -0.7,0.7 -1,1c-0.8,0 -1.6,0.2 -2,1c-1.4,0 -2.4,0.7 -3,2c-0.3,0.4 -0.6,0.7 -0.9,1.1c-0.2,0.1 -0.4,0.2 -0.5,0.4c0.2,-0.1 0.4,-0.2 0.5,-0.4zm-6,4c0.8,0 1.6,-0.2 2,-1c0.8,-0.1 1.6,-0.2 1.5,-1.2c0,-0.1 -0.2,-0.3 -0.3,-0.3c-1.1,-0.1 -1.2,0.7 -1.3,1.5c-0.8,0 -1.5,0.1 -1.9,1c-0.4,0.3 -0.7,0.6 -1.1,0.9c-0.8,0 -1.6,0.2 -2,1c-0.3,0.3 -0.7,0.7 -1,1c-0.8,0 -1.6,0.2 -2,1c-1.4,0.1 -2.4,0.7 -3,2c-0.3,0.3 -0.6,0.7 -1,1c-0.1,0.2 -0.3,0.3 -0.4,0.5c0.2,-0.1 0.3,-0.3 0.5,-0.4c0.8,0 1.6,-0.2 2,-1c1.2,-0.1 1.9,-0.7 2,-2c0.8,0 1.6,-0.2 2,-1c0.3,-0.3 0.7,-0.7 1,-1c0.8,0 1.6,-0.2 2,-1c0.4,-0.3 0.7,-0.6 1,-1zm-16,11c-0.8,0.1 -1.6,0.2 -1.5,1.3c0,0.1 0.2,0.3 0.3,0.3c1,0 1.1,-0.8 1.2,-1.6c0.9,0.1 1.6,-0.1 2.1,-0.9c0.8,-0.1 1.6,-0.2 1.5,-1.3c0,-0.1 -0.2,-0.3 -0.3,-0.3c-1.1,-0.1 -1.2,0.7 -1.3,1.5c-0.9,0 -1.6,0.2 -2,1zm-13.1,8.9c-1.4,0.1 -2.4,0.8 -3,2c-0.7,0.2 -1.6,0.3 -1.5,1.3c0,0.1 0.2,0.3 0.3,0.3c1,0.1 1.2,-0.7 1.4,-1.5c1.4,0 2.8,-0.2 3,-2c0.8,0 1.5,-0.2 2,-1c1.4,-0.1 2.4,-0.8 3,-2c0.7,-0.2 1.6,-0.2 1.5,-1.3c0,-0.1 -0.2,-0.3 -0.3,-0.3c-1.1,-0.1 -1.2,0.7 -1.3,1.5c-1.4,0 -2.8,0.1 -3,2c-0.9,0.1 -1.6,0.3 -2.1,1zm9.8,-5.7c-0.1,-0.3 -0.1,-0.7 -0.3,-0.8c-0.2,-0.1 -0.6,0 -0.8,0.2c-0.3,0.4 -0.2,0.9 0.4,0.9c0.1,0.1 0.4,-0.1 0.7,-0.3z"/>
  <path id="svg_5" fill="#F6F4EC" d="m388.1,143c-16.5,12.3 -33,24.6 -49.6,36.9c-26.2,19.4 -52.5,38.6 -78.7,58c-2.4,1.8 -3.8,2 -6.3,0.1c-42,-31.3 -84.1,-62.4 -126.2,-93.6c-0.5,-0.4 -0.9,-0.9 -1.4,-1.4c54.6,0 109.2,-0.1 163.9,-0.1c32.7,0.1 65.5,0.1 98.3,0.1z"/>
  <path id="svg_6" fill="#B6B5AC" d="m376,370c-3.3,-4.4 -8.3,-6.6 -12.6,-9.6c-33.9,-23.7 -68,-47.2 -101.9,-70.8c-1.4,-1 -3.4,-1.6 -3.7,-3.8c3,-3.7 7.3,-5.7 11.1,-8.3c36.6,-25.3 73.3,-50.4 110,-75.6c0,56.3 0,112.6 0.1,168.9c-1,-0.1 -2,-0.5 -3,-0.8z"/>
  <path id="svg_7" fill="#B13A30" d="m379.1,371c0,-56.3 0,-112.6 -0.1,-168.9c11,-7.9 21.9,-15.7 32.9,-23.6c0.9,-0.7 1.8,-1.5 3.1,-1.5c0.1,18.5 0.2,36.9 0.2,55.4c0,36.1 0,72.2 0,108.3c0,2.5 0,5 -0.1,7.5c-0.6,12.4 -6.6,19.4 -18.6,21.7c-5.8,1.1 -11.6,1.8 -17.4,1.1z"/>
  <path id="svg_8" fill="#C1C0B6" d="m138.1,368.1c-0.7,1 -1.4,1.9 -2.1,2.9c-0.7,0 -1.3,0 -2,0.1c0,-0.7 0.1,-1.4 0.1,-2.1c1.3,-0.4 2.5,-0.7 3.8,-1.1c0,0 0.2,0.2 0.2,0.2z"/>
  <path id="svg_9" fill="#C1C0B6" d="m142.9,363.9c2.5,-3.1 5.9,-4.8 9.5,-6.3c-2.6,2.9 -5.1,5.9 -9.3,6.5l-0.2,-0.2z"/>
  <path id="svg_10" fill="#C1C0B6" d="m143.1,364.1c-0.9,2.4 -2.9,3.3 -5,4c0,0 -0.2,-0.2 -0.2,-0.2c0.8,-2.4 2.9,-3.3 5,-4c0,0 0.2,0.2 0.2,0.2z"/>
  <path id="svg_11" fill="#C5C3B9" d="m198,326c-0.1,1.9 -1.8,2.2 -3,3c0,-0.3 0,-0.7 0,-1c0.6,-1.3 1.6,-2 3,-2c0,0 0,0 0,0z"/>
  <path id="svg_12" fill="#C3C2B8" d="m178.9,339c0.6,-1.3 1.6,-2 3,-2l0.1,0.1c0,1.3 -0.7,1.9 -2,2c-0.3,-0.1 -0.7,-0.1 -1.1,-0.1z"/>
  <path id="svg_13" fill="#C1C0B6" d="m164.1,350.1c-0.6,1.3 -1.6,1.9 -3,2c0,0 -0.1,-0.1 -0.1,-0.1c0.2,-1.9 1.6,-2 3,-2l0.1,0.1z"/>
  <path id="svg_14" fill="#C1C0B6" d="m155.9,354.9c0.6,-1.2 1.6,-1.9 3,-2l0.1,0.2c-0.2,1.9 -1.5,2 -3,2l-0.1,-0.2z"/>
  <path id="svg_15" fill="#C1C0B6" d="m173.9,342.9c0.1,-0.8 0.3,-1.6 1.3,-1.5c0.1,0 0.3,0.2 0.3,0.3c0,1.1 -0.8,1.1 -1.5,1.3l-0.1,-0.1z"/>
  <path id="svg_16" fill="#C1C0B6" d="m172,344.1c-0.1,0.8 -0.2,1.6 -1.3,1.5c-0.1,0 -0.3,-0.2 -0.3,-0.3c0,-1.2 0.8,-1.2 1.6,-1.2c0,-0.1 0,0 0,0z"/>
  <path id="svg_17" fill="#C1C0B6" d="m168.7,347.2c-0.2,0.1 -0.5,0.4 -0.7,0.4c-0.5,-0.1 -0.7,-0.5 -0.4,-0.9c0.1,-0.2 0.6,-0.3 0.8,-0.2c0.1,0.1 0.2,0.4 0.3,0.7z"/>
  <path id="svg_18" fill="#C1C0B6" d="m163.9,349.9c0.1,-0.8 0.3,-1.5 1.3,-1.5c0.1,0 0.3,0.2 0.3,0.3c0.1,1.1 -0.8,1.1 -1.5,1.3c0.1,0.1 -0.1,-0.1 -0.1,-0.1z"/>
  <path id="svg_19" fill="#C1C0B6" d="m156.1,355.1c-0.2,0.8 -0.3,1.5 -1.4,1.5c-0.1,0 -0.3,-0.2 -0.3,-0.3c-0.1,-1.1 0.8,-1.1 1.5,-1.3c0,-0.1 0.2,0.1 0.2,0.1z"/>
  <path id="svg_20" fill="#C3C2B8" d="m190,332c0.1,-0.8 0.2,-1.6 1.3,-1.5c0.1,0 0.3,0.2 0.3,0.3c0,1.1 -0.8,1.1 -1.6,1.2l0,0z"/>
  <path id="svg_21" fill="#C5C3B9" d="m201,324c0.4,-0.8 1.2,-1 2,-1l0,0c-0.4,0.8 -1.1,1 -2,1l0,0z"/>
  <path id="svg_22" fill="#C5C3B9" d="m200,325c-0.4,0.8 -1.2,1 -2,1c0,0 -0.1,-0.1 -0.1,-0.1c0.5,-0.7 1.2,-0.9 2.1,-0.9c0,0 0,0 0,0z"/>
  <path id="svg_23" fill="#C3C2B8" d="m185,335c0.4,-0.8 1.2,-1 2,-1c0,0 0.1,0.1 0.1,0.1c-0.5,0.7 -1.2,0.9 -2.1,0.9c0,0.1 0,0 0,0z"/>
  <path id="svg_24" fill="#C3C2B8" d="m182,337c0.4,-0.8 1.2,-1 2,-1l0.1,0.1c-0.5,0.8 -1.2,0.9 -2.1,0.9c0,0 0,0 0,0z"/>
  <path id="svg_25" fill="#C1C0B6" d="m178.9,339c0.4,0 0.8,0 1.1,0c-0.5,0.8 -1.2,1 -2,1c0,0 -0.1,-0.1 -0.1,-0.1c0.4,-0.3 0.7,-0.6 1,-0.9z"/>
  <path id="svg_26" fill="#C1C0B6" d="m174,343c-0.4,0.8 -1.2,1 -2,1c0,0 -0.1,-0.1 -0.1,-0.1c0.4,-0.8 1.2,-1 2,-1c0,0 0.1,0.1 0.1,0.1z"/>
  <path id="svg_27" fill="#C1C0B6" d="m158.9,352.9c0.4,-0.8 1.2,-1 2,-1c0,0 0.1,0.1 0.1,0.1c-0.4,0.8 -1.2,1 -2,1c0.1,0.1 -0.1,-0.1 -0.1,-0.1z"/>
  <path id="svg_28" fill="#C3C2B8" d="m190,332c-0.4,0.8 -1.1,1 -2,1l0,0c0.4,-0.9 1.1,-1 2,-1c0,0 0,0 0,0z"/>
  <path id="svg_29" fill="#C5C3B9" d="m203,323c0.2,-0.1 0.3,-0.3 0.5,-0.4c-0.2,0.1 -0.3,0.3 -0.5,0.4c0,0 0,0 0,0z"/>
  <path id="svg_30" fill="#C5C3B9" d="m201,324c-0.3,0.3 -0.7,0.7 -1,1c0,0 -0.1,-0.1 -0.1,-0.1c0.4,-0.3 0.7,-0.6 1.1,-0.9c0,0 0,0 0,0z"/>
  <path id="svg_31" fill="#C3C2B8" d="m195,328c0,0.3 0,0.7 0,1c-0.3,0 -0.6,0.1 -1,0l0,0c0.3,-0.4 0.6,-0.7 1,-1z"/>
  <path id="svg_32" fill="#C3C2B8" d="m194,329c-0.2,0.1 -0.3,0.3 -0.5,0.4c0.2,-0.1 0.3,-0.3 0.5,-0.4c0,0 0,0 0,0z"/>
  <path id="svg_33" fill="#C3C2B8" d="m184,336c0.3,-0.3 0.7,-0.7 1,-1c0,0 0.1,0.1 0.1,0.1c-0.4,0.3 -0.7,0.6 -1.1,0.9c0,0 0,0 0,0z"/>
  <path id="svg_34" fill="#C1C0B6" d="m178,340c-0.2,0.1 -0.3,0.3 -0.5,0.4c0.2,-0.1 0.3,-0.3 0.5,-0.4c0,0 0,0 0,0z"/>
  <path id="svg_35" fill="#C3C2B8" d="m188,333c-0.3,0.3 -0.7,0.7 -1,1c0,0 -0.1,-0.1 -0.1,-0.1c0.4,-0.3 0.7,-0.6 1.1,-0.9c0,0 0,0 0,0z"/>
 </g>
</svg>