<?xml version="1.0" encoding="utf-8"?>
<!-- Generator: Adobe Illustrator 15.1.0, SVG Export Plug-In . SVG Version: 6.00 Build 0)  -->
<!DOCTYPE svg PUBLIC "-//W3C//DTD SVG 1.1//EN" "http://www.w3.org/Graphics/SVG/1.1/DTD/svg11.dtd">
<svg version="1.1" id="Capa_1" xmlns="http://www.w3.org/2000/svg" xmlns:xlink="http://www.w3.org/1999/xlink" x="0px" y="0px"
	 width="308.891px" height="55.124px" viewBox="0 0 308.891 55.124" enable-background="new 0 0 308.891 55.124"
	 xml:space="preserve">
<g>
	<g>
		<path fill="#004684" d="M47.396,22.792c0,0.538-0.27,0.971-0.863,0.971h-6.899c-0.323,0-0.701-0.108-0.701-0.433
			c0-1.509-1.939-6.684-10.511-6.684c-5.983,0-10.189,5.175-10.189,11.32c0,5.66,4.098,11.051,10.189,11.051
			c9.487,0,10.674-6.415,10.674-7.493c0-0.431,0.377-0.754,0.809-0.754h6.846c0.484,0,0.863,0.377,0.809,0.861
			c-0.216,3.451-2.264,15.31-19.084,15.31c-11.535,0-19.028-8.085-19.028-19.298c0-9.974,6.738-19.461,18.976-19.461
			C39.849,8.183,47.396,15.999,47.396,22.792"/>
		<path fill="#004684" d="M169.286,15.406c0,0.485-0.323,0.809-0.808,0.809h-27.386v7.331h26.469c0.485,0,0.81,0.325,0.81,0.809
			v6.199c0,0.485-0.324,0.81-0.81,0.81h-26.469v7.385h27.493c0.486,0,0.809,0.323,0.809,0.809v5.983
			c0,0.486-0.322,0.809-0.809,0.809h-36.172c-0.485,0-0.81-0.322-0.81-0.809V9.423c0-0.485,0.324-0.81,0.81-0.81h36.064
			c0.484,0,0.808,0.324,0.808,0.81V15.406z"/>
		<path fill="#004684" d="M104.515,23.546h26.468c0.486,0,0.81,0.325,0.81,0.809v-8.14h-27.277V23.546z"/>
		<path fill="#004684" d="M130.983,31.363h-26.468v7.385h27.277v-8.194C131.792,31.039,131.469,31.363,130.983,31.363"/>
		<path fill="#004684" d="M95.146,45.621c0,0.485-0.324,0.81-0.808,0.81h-7.926c-0.484,0-0.809-0.324-0.809-0.81V31.228H66.198
			v14.394c0,0.485-0.324,0.81-0.809,0.81h-7.817c-0.484,0-0.808-0.324-0.808-0.81V9.504c0-0.485,0.323-0.81,0.808-0.81h7.817
			c0.484,0,0.809,0.324,0.809,0.81v14.177h19.406V9.504c0-0.485,0.324-0.81,0.809-0.81h7.926c0.483,0,0.808,0.324,0.808,0.81V45.621
			z"/>
	</g>
	<g>
		<g>
			<path fill="#A7BF30" d="M192.128,14.62v-0.711c0-0.148,0.102-0.247,0.249-0.247h1.935c0.148,0,0.249,0.099,0.249,0.247v8.266
				c0,0.148-0.101,0.248-0.249,0.248h-1.935c-0.147,0-0.249-0.1-0.249-0.248v-1.124c-0.445,0.859-1.486,1.537-3.04,1.537
				c-2.728,0-4.231-2.231-4.231-4.563c0-2.265,1.406-4.512,4.481-4.512C190.743,13.514,191.683,14.025,192.128,14.62
				 M187.336,18.025c0,1.355,0.96,2.496,2.397,2.496c1.371,0,2.413-1.19,2.413-2.496c0-1.074-0.745-2.513-2.266-2.513
				C188.426,15.513,187.336,16.653,187.336,18.025"/>
			<path fill="#A7BF30" d="M207.569,14.39c0.134,0.065,0.183,0.215,0.101,0.363l-0.794,1.371c-0.066,0.1-0.198,0.15-0.316,0.1
				c-1.105-0.479-1.882-0.727-2.726-0.727c-0.843,0-1.272,0.264-1.272,0.627v0.018c0,0.512,1.174,0.71,2.479,1.023
				c1.702,0.447,3.074,1.241,3.074,2.563c0,2.018-1.404,2.86-4.066,2.86c-1.617,0-2.445-0.364-3.917-1.223
				c-0.13-0.084-0.182-0.249-0.082-0.381l0.777-1.074c0.082-0.099,0.215-0.115,0.313-0.066c1.224,0.662,2.115,0.926,3.223,0.926
				c0.991,0,1.439-0.281,1.439-0.694v-0.018c0-0.694-1.39-1.057-2.728-1.355c-1.702-0.378-2.812-0.99-2.812-2.609v-0.051
				c0-1.273,1.173-2.528,3.639-2.528C205.353,13.514,206.364,13.811,207.569,14.39"/>
			<path fill="#A7BF30" d="M221.421,17.877c0,0.413-0.016,0.81-0.115,0.991c-0.049,0.067-0.116,0.1-0.181,0.1h-6.183
				c0,0.794,1.224,1.753,2.215,1.753c0.744,0,1.486,0.049,2.727-0.959c0.132-0.1,0.217-0.066,0.313,0.017l0.777,0.728
				c0.116,0.115,0.1,0.246,0.017,0.38c-0.844,1.207-2.099,1.702-3.885,1.702c-2.909,0-4.529-2.314-4.529-4.48v-0.049
				c0-2.43,1.455-4.545,4.432-4.545C219.933,13.514,221.421,15.314,221.421,17.877 M214.909,17.364h4.498
				c0-1.024-0.927-1.851-2.383-1.851C215.835,15.514,214.909,16.588,214.909,17.364"/>
			<path fill="#A7BF30" d="M233.77,14.39c0.133,0.065,0.182,0.215,0.102,0.363l-0.797,1.371c-0.065,0.1-0.198,0.15-0.313,0.1
				c-1.108-0.479-1.885-0.727-2.728-0.727s-1.273,0.264-1.273,0.627v0.018c0,0.512,1.173,0.71,2.48,1.023
				c1.702,0.447,3.074,1.241,3.074,2.563c0,2.018-1.406,2.86-4.067,2.86c-1.62,0-2.445-0.364-3.917-1.223
				c-0.134-0.084-0.183-0.249-0.083-0.381l0.777-1.074c0.083-0.099,0.214-0.115,0.313-0.066c1.223,0.662,2.115,0.926,3.225,0.926
				c0.99,0,1.438-0.281,1.438-0.694v-0.018c0-0.694-1.387-1.057-2.729-1.355c-1.702-0.378-2.809-0.99-2.809-2.609v-0.051
				c0-1.273,1.173-2.528,3.636-2.528C231.554,13.514,232.563,13.811,233.77,14.39"/>
			<path fill="#A7BF30" d="M238.614,18.076c0-2.547,1.95-4.563,4.514-4.563c2.545,0,4.463,1.999,4.463,4.545
				c0,2.563-1.918,4.513-4.463,4.513C240.564,22.571,238.614,20.638,238.614,18.076 M245.542,18.093
				c0-1.356-1.109-2.464-2.448-2.464c-1.355,0-2.463,1.107-2.463,2.464c0,1.338,1.107,2.445,2.463,2.445
				C244.432,20.538,245.542,19.431,245.542,18.093"/>
			<path fill="#A7BF30" d="M259.029,15.529c0,0.149-0.082,0.247-0.182,0.247c-3.935,0-3.554,2.744-3.554,3.771v2.627
				c0,0.149-0.098,0.249-0.248,0.249h-1.983c-0.148,0-0.248-0.1-0.248-0.249v-8.265c0-0.148,0.1-0.247,0.248-0.247h1.983
				c0.15,0,0.248,0.099,0.248,0.247v1.885c0.859-1.669,2.693-2.116,3.438-2.231c0.166-0.033,0.298,0.082,0.298,0.265V15.529z"/>
		</g>
		<g>
			<path fill="#A7BF30" d="M193.699,36.899c0,0.413-0.016,0.81-0.114,0.992c-0.051,0.066-0.118,0.099-0.183,0.099h-6.182
				c0,0.794,1.224,1.752,2.215,1.752c0.742,0,1.486,0.05,2.728-0.958c0.131-0.099,0.215-0.065,0.313,0.017l0.777,0.729
				c0.115,0.114,0.099,0.246,0.017,0.378c-0.845,1.208-2.099,1.703-3.886,1.703c-2.909,0-4.527-2.313-4.527-4.479v-0.049
				c0-2.431,1.453-4.546,4.431-4.546C192.213,32.536,193.699,34.338,193.699,36.899 M187.187,36.388h4.496
				c0-1.025-0.926-1.851-2.379-1.851C188.114,34.537,187.187,35.61,187.187,36.388"/>
			<path fill="#A7BF30" d="M208.643,41.197c0,0.148-0.098,0.247-0.247,0.247h-1.934c-0.148,0-0.25-0.099-0.25-0.247V40.09
				c-0.444,0.562-1.486,1.521-3.041,1.521c-5.39,0-5.967-9.074,0.249-9.074c1.403,0,2.348,0.629,2.792,1.124v-4.084
				c0-0.148,0.102-0.248,0.25-0.248h1.934c0.149,0,0.247,0.1,0.247,0.248V41.197z M201.237,37.131c0,1.355,1.109,2.463,2.481,2.463
				c1.354,0,2.46-1.107,2.46-2.463c0-1.372-1.105-2.479-2.46-2.479C202.346,34.651,201.237,35.759,201.237,37.131"/>
			<path fill="#A7BF30" d="M216.379,32.685c0.147,0,0.249,0.1,0.249,0.248c0.017,1.785,0.017,4.05,0.017,4.05
				c0,1.736,0.709,2.727,2.248,2.727c1.123,0,1.852-0.794,2.297-1.569v-5.207c0-0.148,0.101-0.248,0.249-0.248h1.932
				c0.151,0,0.249,0.1,0.249,0.248v8.265c0,0.148-0.098,0.247-0.249,0.247h-1.932c-0.148,0-0.249-0.099-0.249-0.247V39.99
				c-0.547,0.661-1.603,1.62-3.669,1.62c-2.596,0-3.323-1.95-3.323-4.363v-4.314c0-0.148,0.099-0.248,0.247-0.248H216.379z"/>
			<path fill="#A7BF30" d="M237.505,33.825c0.101,0.1,0.101,0.265,0,0.362l-1.289,1.274c-0.101,0.099-0.232,0.099-0.346,0
				c-0.581-0.495-1.309-0.76-2.199-0.76c-2.925,0-3.455,4.759,0.115,4.759c0.843,0,1.587-0.264,2.23-0.76
				c0.099-0.082,0.23-0.082,0.314,0l1.224,1.125c0.115,0.099,0.115,0.264,0,0.362c-0.893,0.827-1.935,1.404-3.704,1.404
				c-2.841,0-4.942-2.015-4.942-4.478v-0.051c0-2.446,2.084-4.512,4.993-4.512C235.571,32.553,236.645,33.032,237.505,33.825"/>
			<path fill="#A7BF30" d="M249.077,33.644v-0.711c0-0.148,0.099-0.248,0.25-0.248h1.932c0.148,0,0.249,0.1,0.249,0.248v8.265
				c0,0.148-0.101,0.247-0.249,0.247h-1.932c-0.151,0-0.25-0.099-0.25-0.247v-1.124c-0.445,0.859-1.486,1.537-3.041,1.537
				c-2.727,0-4.233-2.231-4.233-4.563c0-2.264,1.406-4.512,4.48-4.512C247.688,32.536,248.631,33.049,249.077,33.644
				 M244.284,37.048c0,1.355,0.958,2.496,2.396,2.496c1.372,0,2.414-1.189,2.414-2.496c0-1.073-0.745-2.512-2.266-2.512
				C245.375,34.536,244.284,35.676,244.284,37.048"/>
			<path fill="#A7BF30" d="M263.343,32.52c0.148,0,0.249,0.1,0.249,0.248v1.588c0,0.148-0.101,0.247-0.249,0.247h-2.513v3.95
				c0,0.66,0.445,0.959,1.205,0.959c0.515,0,1.012-0.1,1.374-0.363c0.099-0.083,0.229-0.083,0.331,0l0.894,0.875
				c-0.035-0.033-0.778,1.604-3.392,1.569c-1.206-0.016-1.686-0.313-1.982-0.512c-0.63-0.462-0.91-1.321-0.91-2.297v-4.182h-1.14
				c-0.147,0-0.248-0.099-0.248-0.247v-1.588c0-0.148,0.101-0.248,0.248-0.248h1.14v-2.926c0-0.148,0.099-0.248,0.249-0.248h2.017
				c0.148,0,0.247,0.1,0.247,0.248v2.926H263.343z"/>
			<path fill="#A7BF30" d="M272.302,31.512c0,0.147-0.101,0.247-0.249,0.247h-2.197c-0.148,0-0.249-0.1-0.249-0.247v-1.72
				c0-0.148,0.101-0.247,0.249-0.247h2.197c0.148,0,0.249,0.099,0.249,0.247V31.512z M272.219,41.197
				c0,0.148-0.099,0.247-0.247,0.247h-1.985c-0.148,0-0.245-0.099-0.245-0.247l-0.034-8.265c0-0.148,0.098-0.248,0.246-0.248h2.019
				c0.148,0,0.247,0.1,0.247,0.248V41.197z"/>
			<path fill="#A7BF30" d="M283.36,41.297c-0.03,0.1-0.115,0.147-0.199,0.147h-2.76c-0.099,0-0.18-0.048-0.213-0.147l-2.977-8.231
				c-0.067-0.198,0.051-0.381,0.266-0.381h1.999c0.114,0,0.199,0.065,0.232,0.165l2.081,6.563l1.969-6.563
				c0.033-0.1,0.113-0.165,0.215-0.165h2.05c0.229,0,0.347,0.199,0.28,0.396L283.36,41.297z"/>
			<path fill="#A7BF30" d="M290.468,37.098c0-2.546,1.952-4.562,4.515-4.562c2.545,0,4.463,2,4.463,4.546
				c0,2.562-1.918,4.511-4.463,4.511C292.42,41.593,290.468,39.66,290.468,37.098 M297.396,37.115c0-1.356-1.109-2.464-2.447-2.464
				c-1.355,0-2.464,1.107-2.464,2.464c0,1.339,1.108,2.445,2.464,2.445C296.287,39.561,297.396,38.454,297.396,37.115"/>
		</g>
	</g>
</g>
</svg>
