<?xml version="1.0" encoding="UTF-8" standalone="no"?>
<!DOCTYPE svg PUBLIC "-//W3C//DTD SVG 1.1//EN" "http://www.w3.org/Graphics/SVG/1.1/DTD/svg11.dtd">
<svg width="100%" height="100%" viewBox="0 0 32 32" version="1.1" xmlns="http://www.w3.org/2000/svg" xmlns:xlink="http://www.w3.org/1999/xlink" xml:space="preserve" xmlns:serif="http://www.serif.com/" style="fill-rule:evenodd;clip-rule:evenodd;stroke-linejoin:round;stroke-miterlimit:2;">
    <g id="anchor_fm_media_social">
        <path d="M14,15L10.72,15C10.365,14.386 9.709,14.004 9,14C7.903,14 7,14.903 7,16C7,17.097 7.903,18 9,18C9.709,17.996 10.365,17.614 10.72,17L14,17C14.549,17 15,16.549 15,16C15,15.451 14.549,15 14,15Z" style="fill:white;fill-rule:nonzero;"/>
        <path d="M16.5,20.33C18.045,19.438 19,17.784 19,16C19,14.216 18.045,12.562 16.5,11.67C16.357,11.595 16.198,11.556 16.036,11.556C15.488,11.556 15.036,12.008 15.036,12.556C15.036,12.898 15.212,13.217 15.5,13.4C16.429,13.935 17.003,14.928 17.003,16C17.003,17.072 16.429,18.065 15.5,18.6C15.185,18.777 14.989,19.111 14.989,19.472C14.989,19.659 15.042,19.842 15.14,20C15.317,20.307 15.645,20.498 16,20.5C16.179,20.489 16.352,20.43 16.5,20.33Z" style="fill:white;fill-rule:nonzero;"/>
        <path d="M17.43,23.23C20.219,21.909 22.006,19.086 22.006,16C22.006,12.914 20.219,10.091 17.43,8.77C17.296,8.706 17.149,8.673 17,8.673C16.45,8.673 15.998,9.125 15.998,9.675C15.998,10.061 16.221,10.414 16.57,10.58C18.659,11.572 19.996,13.687 19.996,16C19.996,18.313 18.659,20.428 16.57,21.42C16.214,21.582 15.984,21.939 15.984,22.33C15.984,22.879 16.436,23.33 16.984,23.33C16.99,23.33 16.995,23.33 17,23.33C17.149,23.327 17.295,23.293 17.43,23.23Z" style="fill:white;fill-rule:nonzero;"/>
        <path d="M18.4,5.92C18.261,5.85 18.107,5.814 17.952,5.814C17.403,5.814 16.952,6.265 16.952,6.814C16.952,7.23 17.211,7.604 17.6,7.75C20.875,9.178 23.003,12.427 23.003,16C23.003,19.573 20.875,22.822 17.6,24.25C17.234,24.408 16.996,24.77 16.996,25.168C16.996,25.307 17.024,25.443 17.08,25.57C17.239,25.935 17.602,26.171 18,26.17C18.138,26.168 18.274,26.137 18.4,26.08C22.399,24.333 24.996,20.364 24.996,16C24.996,11.636 22.399,7.667 18.4,5.92Z" style="fill:white;fill-rule:nonzero;"/>
    </g>
</svg>
