<?xml version="1.0" encoding="UTF-8" standalone="no"?>
<!DOCTYPE svg PUBLIC "-//W3C//DTD SVG 1.1//EN" "http://www.w3.org/Graphics/SVG/1.1/DTD/svg11.dtd">
<svg width="100%" height="100%" viewBox="0 0 512 512" version="1.1" xmlns="http://www.w3.org/2000/svg" xmlns:xlink="http://www.w3.org/1999/xlink" xml:space="preserve" xmlns:serif="http://www.serif.com/" style="fill-rule:evenodd;clip-rule:evenodd;stroke-linejoin:round;stroke-miterlimit:2;">
    <g transform="matrix(0.441266,0,0,0.441266,-250.648,-335.56)">
        <path d="M1148.17,760.448C1468.36,760.448 1728.32,1020.4 1728.32,1340.6C1728.32,1660.79 1468.36,1920.75 1148.17,1920.75C827.975,1920.75 568.019,1660.79 568.019,1340.6C568.019,1020.4 827.975,760.448 1148.17,760.448ZM1399.1,1580.07C1389.46,1595.81 1368.79,1600.74 1353.05,1591.11C1226.91,1514.06 1068.34,1496.67 881.59,1539.43C863.502,1543.66 845.649,1532.38 841.42,1514.29C837.192,1496.2 848.468,1478.35 866.556,1474.12C1071.16,1427.38 1246.4,1447.58 1388.05,1534.03C1403.79,1543.66 1408.73,1564.33 1399.1,1580.07ZM1464.87,1433.95C1452.65,1453.69 1427.05,1459.79 1407.32,1447.81C1263.08,1359.02 1042.97,1333.41 872.428,1385.33C850.347,1392.14 826.856,1379.45 820.279,1357.37C813.701,1335.29 826.151,1311.8 848.233,1305.22C1043.21,1246.03 1285.63,1274.68 1451.25,1376.63C1470.74,1388.38 1477.09,1414.22 1464.87,1433.95ZM1470.51,1281.73C1297.38,1179.08 1011.97,1169.44 846.823,1219.72C820.279,1227.7 792.324,1212.67 784.102,1186.36C776.116,1159.81 790.915,1131.86 817.46,1123.64C1007.03,1066.09 1322.28,1077.13 1521.48,1195.52C1545.44,1209.62 1553.2,1240.39 1539.1,1264.35C1525.24,1288.07 1494.23,1295.83 1470.51,1281.73Z" style="fill:white;"/>
    </g>
</svg>
